# xmcd
#
# Track frame offsets:
#	150
#	14164
#	29051
#	40478
#	53157
#	65223
#	81125
#	94296
#	114668
#	125734
#	138700
#	153173
#	171255
#
# Disc length: 2463 seconds
# Revision: 0
# Processed by: cddbd v1.5.2PL0 Copyright (c) Steve Scherf et al.
# Submitted via: dBpowerAMP V12.0
#
DISCID=c6099d0d
DTITLE=Pokey LaFarge and the South City Three - Middle of Everywhere
DYEAR=2011
DGENRE=Country
TTITLE0=So Long Honeybee, Goodbye
TTITLE1=Ain't the Same
TTITLE2=Head to Toe
TTITLE3=Sunny Side of the Street
TTITLE4=Shenandoah River
TTITLE5=Mississippi Girl
TTITLE6=Feels So Good
TTITLE7=River Rock Bottom
TTITLE8=Weedwacker Rag
TTITLE9=Drinkin' Whiskey Tonight
TTITLE10=Good Country Girls
TTITLE11=Coffee Pot Blues
TTITLE12=Keep Your Hands Off My Gal
EXTD=
EXTT0=
EXTT1=
EXTT2=
EXTT3=
EXTT4=
EXTT5=
EXTT6=
EXTT7=
EXTT8=
EXTT9=
EXTT10=
EXTT11=
EXTT12=
PLAYORDER=
